<?xml version="1.0" encoding="UTF-8"?>
<svg xmlns="http://www.w3.org/2000/svg" xmlns:xlink="http://www.w3.org/1999/xlink" viewBox="0 0 1105.43 1043.38">
  <defs>
    <style>
      .cls-1 {
        mask: url(#mask);
      }

      .cls-2 {
        filter: url(#luminosity-noclip);
      }

      .cls-3 {
        fill: #c5dbe6;
        opacity: .6;
      }

      .cls-3, .cls-4, .cls-5, .cls-6 {
        mix-blend-mode: multiply;
      }

      .cls-4, .cls-7, .cls-8 {
        opacity: .7;
      }

      .cls-9, .cls-7 {
        fill: #befe54;
      }

      .cls-10 {
        fill: #c8ff47;
      }

      .cls-11 {
        fill: #606060;
      }

      .cls-12 {
        isolation: isolate;
      }

      .cls-13 {
        mask: url(#mask-1);
      }

      .cls-8, .cls-14 {
        fill: #dfe9ef;
      }

      .cls-8, .cls-14, .cls-15 {
        stroke: #98aeb9;
        stroke-miterlimit: 10;
      }

      .cls-16 {
        fill: url(#linear-gradient-2);
        mix-blend-mode: screen;
      }

      .cls-5 {
        fill: url(#linear-gradient);
      }

      .cls-15 {
        fill: none;
      }

      .cls-6 {
        fill: #c0d5e0;
        opacity: .8;
      }

      .cls-17 {
        fill: #150000;
      }
    </style>
    <filter id="luminosity-noclip" x="407.01" y="192.08" width="94.46" height="691.3" color-interpolation-filters="sRGB" filterUnits="userSpaceOnUse">
      <feFlood flood-color="#fff" result="bg"/>
      <feBlend in="SourceGraphic" in2="bg"/>
    </filter>
    <filter id="luminosity-noclip-2" x="407.01" y="-8704.53" width="94.46" height="32766" color-interpolation-filters="sRGB" filterUnits="userSpaceOnUse">
      <feFlood flood-color="#fff" result="bg"/>
      <feBlend in="SourceGraphic" in2="bg"/>
    </filter>
    <mask id="mask-1" x="407.01" y="-8704.53" width="94.46" height="32766" maskUnits="userSpaceOnUse"/>
    <linearGradient id="linear-gradient" x1="403.07" y1="494.81" x2="616.08" y2="568.71" gradientTransform="translate(-121.07 169.34) rotate(-15.83)" gradientUnits="userSpaceOnUse">
      <stop offset="0" stop-color="#fff"/>
      <stop offset="1" stop-color="#000"/>
    </linearGradient>
    <mask id="mask" x="407.01" y="192.08" width="94.46" height="691.3" maskUnits="userSpaceOnUse">
      <g class="cls-2">
        <g class="cls-13">
          <path class="cls-5" d="M407.78,196.23l48.02,169.38s18.05,70.57.97,144.32c-17.09,73.75-46.35,293.29-46.35,293.29,0,0-14.1,63.87,15.07,77.06,0,0,37.91,6.2,75.98,1.04,0,0-30.43-11.7-31.64-75.74-1.21-64.05,13.75-302.13,13.75-302.13,0,0,5.95-62.68,1.68-89.71-4.28-27.03-62.85-221.67-62.85-221.67l-14.64,4.15Z"/>
        </g>
      </g>
    </mask>
    <linearGradient id="linear-gradient-2" x1="403.07" y1="494.81" x2="616.08" y2="568.71" gradientTransform="translate(-121.07 169.34) rotate(-15.83)" gradientUnits="userSpaceOnUse">
      <stop offset="0" stop-color="#fff"/>
      <stop offset="1" stop-color="#fff"/>
    </linearGradient>
  </defs>
  <g class="cls-12">
    <g id="Background">
      <rect class="cls-17" x="80.9" y=".53" width="1024" height="1024"/>
    </g>
    <g id="_4_Layer" data-name="4 – Layer">
      <g>
        <g>
          <g>
            <path class="cls-14" d="M529.83,111.76l-154.04,43.67c-7.05,2-11.37,8.55-9.65,14.62,1.42,4.99,6.49,8.11,12.16,7.95,1.23-.04,2.47-.22,3.73-.57l2.55-.72,145.34-41.21,6.15-1.74c.54-.15,1.06-.35,1.57-.56.66-.27,1.3-.57,1.9-.92,2.26-1.3,4.04-3.11,5.18-5.19,1.34-2.45,1.77-5.25,1.01-7.95-1.72-6.08-8.84-9.38-15.89-7.38Z"/>
            <path class="cls-14" d="M529.83,111.76l-154.04,43.67c-7.05,2-11.37,8.55-9.65,14.62,1.42,4.99,6.49,8.11,12.16,7.95,1.23-.04,2.47-.22,3.73-.57l2.55-.72,145.34-41.21,6.15-1.74c.54-.15,1.06-.35,1.57-.56.66-.27,1.3-.57,1.9-.92,2.26-1.3,4.04-3.11,5.18-5.19,1.34-2.45,1.77-5.25,1.01-7.95-1.72-6.08-8.84-9.38-15.89-7.38Z"/>
          </g>
          <path class="cls-15" d="M916.92,738.16c-4.17-14.8-14.28-26.48-14.28-26.48,0,0-225.59-256.99-263.67-301.98-35.68-42.15-54.22-109.63-56.4-117.96-.09-.37-.15-.61-.15-.61l-44.78-157.94c-.51.21-1.03.41-1.57.56l-154.04,43.67c-1.25.36-2.5.53-3.73.57l44.87,158.28s23.22,71.04,14.41,129.32c-8.8,58.29-66.18,396.97-66.18,396.97,0,0-4.21,42.94,23.9,55.24h.01c24.3,13.63,137.16-2.63,268.47-39.86,130.6-37.03,234.76-82.12,249.2-106.57h.02c.05-.08.07-.16.13-.22.02-.03.04-.07.05-.1,6.78-10.05,6.51-23.23,3.73-32.91Z"/>
          <path class="cls-8" d="M916.92,738.16c-4.17-14.8-14.28-26.48-14.28-26.48,0,0-225.59-256.99-263.67-301.98-35.68-42.15-54.22-109.63-56.4-117.96-.09-.37-.15-.61-.15-.61l-44.78-157.94c-.51.21-1.03.41-1.57.56l-154.04,43.67c-1.25.36-2.5.53-3.73.57l44.87,158.28s23.22,71.04,14.41,129.32c-8.8,58.29-66.18,396.97-66.18,396.97,0,0-4.21,42.94,23.9,55.24h.01c24.3,13.63,137.16-2.63,268.47-39.86,130.6-37.03,234.76-82.12,249.2-106.57h.02c.05-.08.07-.16.13-.22.02-.03.04-.07.05-.1,6.78-10.05,6.51-23.23,3.73-32.91Z"/>
        </g>
        <g class="cls-4">
          <path class="cls-7" d="M902.64,711.68s-134.54-153.27-213.35-243.79c1.32,4.69-56.74,25.26-129.69,45.94-72.95,20.68-133.16,33.64-134.5,28.95-19.67,118.98-53.69,319.79-53.69,319.79,0,0-4.21,42.94,23.9,55.24h.01c24.3,13.63,137.16-2.63,268.47-39.86,130.6-37.03,234.76-82.12,249.2-106.57h.02c.05-.08.07-.16.13-.22.02-.03.04-.07.05-.1,6.78-10.05,6.51-23.23,3.73-32.91-4.17-14.8-14.28-26.48-14.28-26.48Z"/>
          <path class="cls-9" d="M425.09,542.78h0c.03-.18.06-.36.09-.55-.1.21-.14.39-.09.55Z"/>
          <path class="cls-9" d="M689.28,467.88c-.05-.16-.18-.29-.37-.42.12.15.24.28.37.43h0Z"/>
          <path class="cls-9" d="M559.59,513.83c72.95-20.68,131.01-41.25,129.69-45.94-.13-.14-.25-.28-.37-.43-5.19-3.35-63.72,9.42-134.14,29.38-70.41,19.96-126.94,39.82-129.59,45.39-.03.19-.07.37-.09.55,1.34,4.69,61.55-8.27,134.5-28.95Z"/>
          <circle class="cls-10" cx="595.71" cy="485.87" r="35.46"/>
          <ellipse class="cls-10" cx="504.51" cy="443.08" rx="32.41" ry="33.47" transform="translate(-101.72 154.41) rotate(-15.83)"/>
          <ellipse class="cls-10" cx="554.17" cy="373.12" rx="16.2" ry="16.74" transform="translate(-80.76 165.31) rotate(-15.83)"/>
          <ellipse class="cls-10" cx="493.83" cy="334.18" rx="31.23" ry="32.25" transform="translate(-72.43 147.37) rotate(-15.83)"/>
        </g>
        <path class="cls-6" d="M902.64,711.68s-225.59-256.99-263.67-301.98c-35.68-42.15-54.22-109.63-56.4-117.96-.09-.37-.15-.61-.15-.61l-44.78-157.94c-.51.21-1.03.41-1.57.56l-154.04,43.67c-1.25.36-2.5.53-3.73.57l44.87,158.28s23.22,71.04,14.41,129.32c-8.8,58.29-66.18,396.97-66.18,396.97,0,0-4.21,42.94,23.9,55.24h.01c24.3,13.63,137.16-2.63,268.47-39.86,130.6-37.03,234.76-82.12,249.2-106.57h.02c.05-.08.07-.16.13-.22.02-.03.04-.07.05-.1,6.78-10.05,6.51-23.23,3.73-32.91-4.17-14.8-14.28-26.48-14.28-26.48ZM645.44,855.2c-141.71,55.99-232.06,34.16-232.06,34.16-28.93-14.4-17.94-63.26-17.94-63.26,0,0,32.74-243.12,46.54-315.94,13.81-72.82-2.15-149.06-2.15-149.06l-48.91-172.52,61.69-17.49s70.54,252.81,78.71,277.61c8.16,24.8,17.46,39.67,17.46,39.67,0,0,128.72,236.88,146.23,290.65,17.5,53.78-49.57,76.18-49.57,76.18Z"/>
        <path class="cls-3" d="M902.64,711.68s-225.59-256.99-263.67-301.98c-35.68-42.15-54.22-109.63-56.4-117.96-.09-.37-.15-.61-.15-.61l-44.78-157.94c-.51.21-1.03.41-1.57.56l-35.81,10.15,67.32,237.46s28.29,72.18,93.05,143.06c64.76,70.89,182.54,219.36,182.54,219.36,0,0,33.3,33.93-29.7,70.55-63.01,36.61-337.59,121.13-412.66,92.43,0,0-28.75-8.4-27.71-54.21t0-.01c-1.09,6.43-1.7,10.03-1.7,10.03,0,0-4.21,42.94,23.9,55.24h.01c24.3,13.63,137.16-2.63,268.47-39.86,130.6-37.03,234.76-82.12,249.2-106.57h.02c.05-.08.07-.16.13-.22.02-.03.04-.07.05-.1,6.78-10.05,6.51-23.23,3.73-32.91-4.17-14.8-14.28-26.48-14.28-26.48Z"/>
        <g class="cls-1">
          <path class="cls-16" d="M407.78,196.23l48.02,169.38s18.05,70.57.97,144.32c-17.09,73.75-46.35,293.29-46.35,293.29,0,0-14.1,63.87,15.07,77.06,0,0,37.91,6.2,75.98,1.04,0,0-30.43-11.7-31.64-75.74-1.21-64.05,13.75-302.13,13.75-302.13,0,0,5.95-62.68,1.68-89.71-4.28-27.03-62.85-221.67-62.85-221.67l-14.64,4.15Z"/>
        </g>
      </g>
      <g class="cls-4">
        <path class="cls-7" d="M902.45,712.36s-134.54-153.27-213.35-243.79c1.32,4.69-56.74,25.26-129.69,45.94-72.95,20.68-133.16,33.64-134.5,28.95-19.67,118.98-53.69,319.79-53.69,319.79,0,0-4.21,42.94,23.9,55.24h.01c24.3,13.63,137.16-2.63,268.47-39.86,130.6-37.03,234.76-82.12,249.2-106.57h.02c.05-.08.07-.16.13-.22.02-.03.04-.07.05-.1,6.78-10.05,6.51-23.23,3.73-32.91-4.17-14.8-14.28-26.48-14.28-26.48Z"/>
        <path class="cls-9" d="M424.9,543.47h0c.03-.18.06-.36.09-.55-.1.21-.14.39-.09.55Z"/>
        <path class="cls-9" d="M689.1,468.57c-.05-.16-.18-.29-.37-.42.12.15.24.28.37.43h0Z"/>
        <path class="cls-9" d="M559.41,514.52c72.95-20.68,131.01-41.25,129.69-45.94-.13-.14-.25-.28-.37-.43-5.19-3.35-63.72,9.42-134.14,29.38-70.41,19.96-126.94,39.82-129.59,45.39-.03.19-.07.37-.09.55,1.34,4.69,61.55-8.27,134.5-28.95Z"/>
        <circle class="cls-10" cx="595.52" cy="486.56" r="35.46"/>
        <ellipse class="cls-10" cx="504.32" cy="443.76" rx="32.41" ry="33.47" transform="translate(-101.92 154.39) rotate(-15.83)"/>
        <ellipse class="cls-10" cx="553.98" cy="373.8" rx="16.2" ry="16.74" transform="translate(-80.95 165.28) rotate(-15.83)"/>
        <ellipse class="cls-10" cx="493.64" cy="334.87" rx="31.23" ry="32.25" transform="translate(-72.62 147.35) rotate(-15.83)"/>
      </g>
    </g>
    <g id="App_Icon_Shape" data-name="App Icon Shape">
      <path class="cls-11" d="M80.9.53v1024h1024V.53H80.9ZM1104.9,651.53c0,14.24,0,28.48-.08,42.73-.07,12-.21,23.99-.53,35.98-.71,26.13-2.25,52.49-6.89,78.34-4.71,26.22-12.4,50.62-24.53,74.44-11.92,23.41-27.49,44.84-46.07,63.41s-40,34.15-63.41,46.07c-23.82,12.12-48.22,19.82-74.44,24.53-25.84,4.65-52.2,6.18-78.34,6.89-11.99.33-23.99.46-35.98.53-14.24.09-28.48.08-42.73.08h-278c-14.24,0-28.48,0-42.73-.08-12-.07-23.99-.21-35.98-.53-26.13-.71-52.49-2.25-78.34-6.89-26.22-4.71-50.62-12.4-74.44-24.53-23.41-11.92-44.84-27.49-63.41-46.07s-34.15-40-46.07-63.41c-12.12-23.82-19.82-48.22-24.53-74.44-4.65-25.84-6.18-52.2-6.89-78.34-.33-11.99-.46-23.99-.53-35.98-.09-14.24-.08-28.48-.08-42.73v-278c0-14.24,0-28.48.08-42.73.07-12,.21-23.99.53-35.98.71-26.13,2.25-52.49,6.89-78.34,4.71-26.22,12.4-50.62,24.53-74.44,11.92-23.41,27.49-44.84,46.07-63.41s40-34.15,63.41-46.07c23.82-12.12,48.22-19.82,74.44-24.53,25.84-4.65,52.2-6.18,78.34-6.89,11.99-.33,23.99-.46,35.98-.53,14.24-.09,28.48-.08,42.73-.08h278c14.24,0,28.48,0,42.73.08,12,.07,23.99.21,35.98.53,26.13.71,52.49,2.25,78.34,6.89,26.22,4.71,50.62,12.4,74.44,24.53,23.41,11.92,44.84,27.49,63.41,46.07s34.15,40,46.07,63.41c12.12,23.82,19.82,48.22,24.53,74.44,4.65,25.84,6.18,52.2,6.89,78.34.33,11.99.46,23.99.53,35.98.09,14.24.08,28.48.08,42.73v278Z"/>
    </g>
  </g>
</svg>